<?xml version="1.0" encoding="UTF-8" standalone="no"?>
<!-- Created with Inkscape (http://www.inkscape.org/) -->

<svg
   width="47.599747mm"
   height="29.127573mm"
   viewBox="0 0 47.599747 29.127573"
   version="1.1"
   id="svg5"
   xml:space="preserve"
   inkscape:version="1.2 (1:1.2.1+202207142221+cd75a1ee6d)"
   sodipodi:docname="logo.svg"
   xmlns:inkscape="http://www.inkscape.org/namespaces/inkscape"
   xmlns:sodipodi="http://sodipodi.sourceforge.net/DTD/sodipodi-0.dtd"
   xmlns="http://www.w3.org/2000/svg"
   xmlns:svg="http://www.w3.org/2000/svg"><sodipodi:namedview
     id="namedview7"
     pagecolor="#ffffff"
     bordercolor="#000000"
     borderopacity="0.25"
     inkscape:showpageshadow="2"
     inkscape:pageopacity="0.0"
     inkscape:pagecheckerboard="0"
     inkscape:deskcolor="#d1d1d1"
     inkscape:document-units="mm"
     showgrid="false"
     inkscape:zoom="2.8284271"
     inkscape:cx="151.14407"
     inkscape:cy="19.091883"
     inkscape:window-width="2560"
     inkscape:window-height="1403"
     inkscape:window-x="2560"
     inkscape:window-y="0"
     inkscape:window-maximized="1"
     inkscape:current-layer="layer1" /><defs
     id="defs2" /><g
     inkscape:label="Layer 1"
     inkscape:groupmode="layer"
     id="layer1"
     transform="translate(-53.32808,-53.312018)"><path
       style="fill:#7eba00;fill-opacity:1;stroke-width:0.0846667"
       d="m 84.876295,82.331509 c -3.4e-4,-0.05821 -0.0766,-0.614528 -0.16948,-1.236267 -0.3185,-2.131395 -0.50216,-2.656225 -1.11229,-3.178469 -0.32029,-0.274159 -0.40676,-0.305431 -0.84459,-0.305431 -0.26827,0 -0.50678,-0.03077 -0.53002,-0.06837 -0.0232,-0.03761 -0.06395,-0.313831 -0.09045,-0.613833 -0.08064,-0.912622 -0.119253,-1.014741 -0.433347,-1.145978 -0.15684,-0.06553 -0.372112,-0.119731 -0.478382,-0.120444 -0.511494,-0.0034 -0.484295,-0.190908 0.287511,-1.981807 0.548531,-1.272813 0.723928,-1.908392 0.629951,-2.282803 -0.05152,-0.205261 -0.08977,-0.230391 -0.278586,-0.183002 -0.446027,0.111945 -1.119919,0.69104 -2.548502,2.189998 -0.385224,0.4042 -0.747174,0.733852 -0.804334,0.732558 -0.05716,-0.0013 -0.214393,-0.114935 -0.349407,-0.252536 -0.45655,-0.465298 -1.11033,-0.444909 -2.745456,0.08562 -0.573982,0.186232 -1.116907,0.338604 -1.2065,0.338604 -0.247616,0 -0.19974,-0.245484 0.140407,-0.719937 0.373087,-0.5204 0.62803,-1.004801 0.62803,-1.193281 0,-0.123068 -0.07044,-0.135266 -0.529167,-0.09163 -0.677046,0.0644 -0.715137,0.07421 -1.13235,0.291535 -0.438246,0.228282 -0.75947,0.605362 -0.891721,1.046778 -0.08954,0.298865 -0.08184,0.380866 0.06124,0.652351 0.09001,0.170786 0.221964,0.375394 0.293226,0.454685 0.07126,0.07929 0.37363,0.555541 0.671933,1.058333 0.298302,0.502792 0.711027,1.156266 0.917168,1.452164 0.322374,0.462743 0.362297,0.565438 0.285415,0.734175 -0.1724,0.378379 -0.493587,0.0889 -1.079909,-0.973303 -0.0892,-0.161589 -0.228848,-0.368799 -0.31034,-0.460465 -0.08149,-0.09167 -0.148167,-0.195037 -0.148167,-0.229712 0,-0.03467 -0.264595,-0.462354 -0.587989,-0.950398 l -0.587989,-0.887355 -0.787845,0.04063 c -1.434398,0.07397 -2.298176,0.400267 -2.711006,1.024094 -0.199649,0.30169 -0.284972,0.347512 -1.09402,0.587526 -0.482616,0.143175 -1.334684,0.361308 -1.893484,0.484741 -0.5588,0.123433 -1.169275,0.25886 -1.356611,0.300948 -0.187337,0.04209 -0.534298,0.102218 -0.771026,0.133621 l -0.430414,0.0571 -0.05915,-0.445871 c -0.06773,-0.5106 -0.229021,-0.869136 -0.540974,-1.202557 -0.273961,-0.292815 -0.761172,-0.31123 -1.575963,-0.05957 -0.573023,0.176988 -0.726864,0.165754 -0.726864,-0.05308 0,-0.0681 -0.09914,-0.273632 -0.220317,-0.456737 -0.330872,-0.499982 -0.72631,-0.600889 -2.35041,-0.599769 -1.111218,7.67e-4 -1.32394,-0.01917 -1.32394,-0.12405 0,-0.06873 0.03249,-0.124965 0.07221,-0.124965 0.157295,0 1.619597,-1.509694 1.886204,-1.947333 0.337255,-0.553613 0.383689,-0.831254 0.198811,-1.188769 -0.154247,-0.298279 -0.801493,-0.639284 -1.41015,-0.742943 l -0.366074,-0.06235 -0.06042,-0.664446 c -0.07455,-0.819807 -0.385361,-1.521076 -0.952042,-2.148042 -0.256435,-0.283716 -0.430887,-0.568966 -0.479044,-0.783298 -0.05306,-0.23617 -0.196,-0.450967 -0.477449,-0.717482 -0.22094,-0.209217 -0.425046,-0.380609 -0.453569,-0.380869 -0.113712,-0.001 -0.702566,-0.524512 -0.719454,-0.639575 -0.01417,-0.09657 0.102788,-0.12382 0.54597,-0.127201 0.310206,-0.0024 0.716409,-0.01943 0.902676,-0.03792 0.186266,-0.01849 0.587527,-0.05245 0.89169,-0.07545 0.304164,-0.02301 0.729653,-0.117542 0.945533,-0.21008 0.366762,-0.157212 0.772726,-0.558212 0.724217,-0.715361 -0.01179,-0.0382 0.04391,-0.106027 0.123782,-0.150726 0.110987,-0.06211 0.427377,0.06102 1.342116,0.522337 0.658292,0.331984 1.297792,0.635794 1.421111,0.675132 0.123319,0.03934 0.376617,0.129145 0.562884,0.19957 0.441717,0.167005 1.02507,0.174947 1.086527,0.01479 0.05791,-0.150903 -0.08469,-0.683661 -0.221885,-0.829007 -0.05645,-0.05981 -0.231553,-0.261116 -0.38911,-0.447357 -0.157558,-0.18624 -0.529545,-0.595305 -0.826638,-0.909031 -0.297094,-0.313727 -0.537694,-0.592449 -0.534668,-0.619381 0.003,-0.02693 -0.09247,-0.126038 -0.21222,-0.220231 -0.246551,-0.193937 -0.529353,-0.686233 -0.416031,-0.724219 0.320947,-0.10758 0.684273,-0.357794 0.785993,-0.541294 0.122166,-0.220383 0.09575,-0.416831 -0.209954,-1.561214 -0.03859,-0.144443 0.0291,-0.203939 0.413036,-0.363072 0.440447,-0.182555 0.80325,-0.470621 0.818022,-0.64951 0.0038,-0.04657 0.04404,-0.218017 0.08932,-0.381 0.161792,-0.582346 0.03683,-1.912551 -0.290303,-3.090334 -0.169113,-0.608857 -0.244292,-1.227666 -0.149147,-1.227666 0.04418,0 0.511668,0.461119 1.038872,1.02471 1.269742,1.357379 2.014782,1.830343 2.94095,1.866965 0.368081,0.01455 0.412685,0.04186 0.649235,0.397496 0.407758,0.613031 0.774667,0.671524 2.422197,0.386147 l 0.30553,-0.05292 0.05773,0.538302 c 0.130893,1.220462 0.762901,2.888371 1.203979,3.177376 0.196939,0.12904 0.245428,0.131445 0.444151,0.02204 0.265626,-0.146243 0.547389,-0.698617 0.686442,-1.345713 0.0554,-0.257801 0.134258,-0.62113 0.175246,-0.807396 0.04099,-0.186267 0.09807,-0.462492 0.12685,-0.613834 0.04701,-0.247209 0.08203,-0.275166 0.344652,-0.275166 0.423855,0 0.826194,-0.195104 1.072712,-0.520183 0.243208,-0.320715 0.606885,-1.10891 0.740347,-1.604553 0.04896,-0.181829 0.124879,-0.330598 0.168704,-0.330598 0.128501,0 0.402047,0.60815 0.538823,1.197915 0.221061,0.953195 0.458678,1.476396 0.817922,1.800951 0.279115,0.252163 0.335045,0.356748 0.335045,0.626498 0,0.767736 0.647265,1.782197 1.230508,1.928582 0.198489,0.04982 0.218969,0.08727 0.175195,0.3204 -0.154111,0.820755 -0.147249,1.193979 0.02704,1.470488 0.09539,0.151341 0.213043,0.275166 0.261446,0.275166 0.133163,0 0.269977,-0.430679 0.234517,-0.73824 -0.03494,-0.303045 -0.104639,-0.278531 1.161632,-0.408571 0.589919,-0.06058 0.83301,-0.192658 1.019948,-0.554156 0.144106,-0.278673 0.157227,-1.139876 0.02296,-1.506942 -0.04069,-0.111233 -0.05759,-0.218628 -0.03756,-0.238656 0.05766,-0.05766 2.101283,-0.356974 3.354992,-0.49138 1.66371,-0.178361 1.98874,-0.167384 2.31282,0.07811 0.41992,0.318098 1.19279,0.435259 1.98663,0.301158 0.35945,-0.06072 0.89807,-0.192209 1.19692,-0.292194 l 0.54337,-0.181789 0.24278,-0.71417 c 0.94116,-2.768571 1.32616,-3.885151 1.43587,-4.164336 0.0999,-0.254294 0.30112,-0.308762 0.38012,-0.102903 0.0439,0.114457 -0.0686,0.695703 -0.2043,1.055403 -0.0263,0.06985 -0.0518,0.14605 -0.0566,0.169333 -0.0274,0.133868 -0.68434,1.742812 -0.72599,1.778 -0.0276,0.02328 -0.055,0.118533 -0.0611,0.211667 -0.006,0.09313 -0.1139,0.493183 -0.23968,0.889 -0.38509,1.211804 -0.30051,1.554223 0.49164,1.990445 0.31511,0.173523 0.51884,0.221471 0.94103,0.221471 0.53142,0 1.36349,-0.172916 1.88981,-0.392729 0.26242,-0.1096 0.27975,-0.102846 0.64384,0.251019 0.24361,0.236768 0.72557,0.533096 1.38132,0.84929 0.55393,0.267101 1.029,0.520477 1.05571,0.563055 0.0267,0.04258 0.14101,0.09478 0.254,0.116001 0.11299,0.02122 0.28164,0.07292 0.37478,0.114881 0.40775,0.183719 0.86724,0.345501 1.12257,0.395252 0.15175,0.02957 0.25436,0.08862 0.22803,0.131219 -0.13346,0.215946 -0.18587,1.691023 -0.0765,2.153071 0.14493,0.612243 0.60498,1.057691 1.09235,1.057691 0.15586,0 0.21587,0.04485 0.21587,0.161333 0,0.34966 0.37708,0.866307 0.87492,1.198748 0.27447,0.183289 0.532925,0.333253 0.574325,0.333253 0.0414,0 0.25518,0.111982 0.47508,0.248849 0.39361,0.244994 0.39656,0.250079 0.19025,0.328277 -0.11526,0.04368 -0.876325,0.105666 -1.691235,0.137734 -0.85304,0.03357 -1.66962,0.110637 -1.92467,0.181651 -0.85347,0.237635 -0.99136,0.702401 -0.48644,1.639493 l 0.29437,0.546338 -0.2471,0.257996 c -0.46449,0.484971 -0.65053,1.76237 -0.34092,2.340883 0.0659,0.123163 0.0433,0.21744 -0.0982,0.408791 -0.2433,0.329083 -0.33321,0.951171 -0.24096,1.667145 0.0882,0.684358 0.0929,1.452764 0.0102,1.661626 -0.0472,0.119223 -0.16948,0.01724 -0.63268,-0.527726 -0.31579,-0.37153 -0.74682,-0.776695 -0.95785,-0.900366 -0.34705,-0.203386 -0.43976,-0.220157 -0.9708,-0.175637 l -0.5871,0.04922 -0.18013,-0.353078 c -0.40392,-0.791756 -1.04524,-1.651345 -1.44371,-1.93508 -0.31984,-0.227745 -0.61452,-0.153567 -0.79778,0.20082 -0.17989,0.347861 -0.2468,1.551103 -0.12369,2.224063 0.0511,0.2794 0.11469,0.741414 0.14127,1.026698 l 0.0483,0.518699 -0.73069,0.13554 c -0.40189,0.07455 -0.86151,0.197615 -1.02139,0.273482 -0.35025,0.166207 -0.63203,0.592625 -0.63203,0.956475 0,0.24044 -0.0439,0.285675 -0.45345,0.466778 -0.24939,0.110297 -0.55738,0.290791 -0.6844,0.401099 -0.44393,0.385503 -0.95773,1.218173 -1.32537,2.147896 -0.43168,1.091664 -0.83734,1.756617 -0.83933,1.375833 z"
       id="path207" /><circle
       style="fill:#ffffff;stroke-width:0.342828"
       id="path315"
       cx="68.581406"
       cy="66.898094"
       r="4.8665681" /><path
       style="fill:#000000;stroke-width:0.0846667"
       d="m 67.851878,72.276051 c -1.678884,-0.20074 -3.263283,-1.353562 -4.012751,-2.919709 -0.461969,-0.965369 -0.552519,-1.357445 -0.551273,-2.386992 0.0012,-0.96875 0.130235,-1.520775 0.560337,-2.396675 0.391543,-0.797372 1.425751,-1.861549 2.206077,-2.270004 1.451232,-0.759635 3.291831,-0.811719 4.75987,-0.134692 1.896532,0.874638 3.078861,2.701533 3.09052,4.775363 0.0055,0.981859 -0.119155,1.528389 -0.551739,2.418648 -0.985562,2.028283 -3.181296,3.191427 -5.501041,2.914061 z m 0.19398,-1.365962 c 0.436809,-0.311035 0.490324,-0.570477 0.490324,-2.377086 0,-0.898212 -0.03746,-1.763741 -0.08325,-1.923397 -0.106561,-0.371554 -0.542031,-0.821287 -0.914162,-0.944101 -0.621945,-0.20526 -1.434084,0.150811 -1.678569,0.735945 -0.316543,0.757593 0.05378,1.659861 0.779584,1.899398 l 0.277003,0.09142 -0.333301,0.689225 c -0.183316,0.379075 -0.333302,0.797909 -0.333302,0.930743 0,0.313843 0.193365,0.681122 0.475393,0.902964 0.31175,0.245224 0.972312,0.242667 1.320282,-0.0051 z m -0.72691,-0.62576 c -0.08461,-0.220479 -0.05755,-0.468205 0.115231,-1.054987 l 0.162047,-0.550333 -0.01686,0.839803 c -0.01071,0.533855 -0.05161,0.851319 -0.112256,0.871412 -0.05247,0.01738 -0.119146,-0.03027 -0.148166,-0.105895 z m -0.475963,-2.620961 c -0.142215,-0.374055 -0.104927,-1.184414 0.06411,-1.39316 0.293232,-0.362127 0.614083,0.02625 0.611843,0.740618 -0.0015,0.490856 -0.154432,0.812866 -0.402901,0.848554 -0.138439,0.01988 -0.210681,-0.03198 -0.273048,-0.196012 z m 3.94246,0.508837 c 0.392508,-0.230025 0.714071,-0.764346 0.714071,-1.18653 0,-0.542519 -0.611475,-1.312333 -1.042406,-1.312333 -0.197965,0 -0.184964,-0.06324 0.164108,-0.798287 0.385295,-0.811323 0.372952,-1.270136 -0.04542,-1.688512 -0.237008,-0.237008 -0.317545,-0.264868 -0.765681,-0.264868 -0.439303,0 -0.532857,0.0307 -0.761722,0.249968 -0.388898,0.372589 -0.446341,0.726096 -0.412535,2.538772 0.03211,1.721904 0.07152,1.901535 0.506159,2.307341 0.446287,0.416682 1.092356,0.4774 1.64343,0.154449 z m -0.956144,-0.526639 c -0.183923,-0.280702 -0.200342,-1.006079 -0.02998,-1.324406 0.393126,-0.734564 0.919424,0.481878 0.547546,1.265553 -0.164935,0.347575 -0.317057,0.364872 -0.517568,0.05885 z m -0.189138,-3.21606 c -0.0033,-0.764189 0.08901,-1.035899 0.264134,-0.777845 0.103036,0.151829 0.02211,0.904247 -0.136574,1.269797 -0.121161,0.279111 -0.124328,0.266898 -0.12756,-0.491952 z m 6.304352,5.760145 c -0.616368,-0.129467 -0.557461,0.02172 -0.531418,-1.363935 l 0.02342,-1.245937 0.389122,-0.07099 c 0.849949,-0.15507 1.5,0.299016 1.259443,0.879771 -0.05524,0.133369 -0.176394,0.266596 -0.269224,0.296059 -0.154922,0.04917 -0.148142,0.06612 0.08257,0.206426 0.428785,0.260759 0.430042,0.860306 0.0024,1.128704 -0.219201,0.137566 -0.701924,0.223333 -0.956279,0.169907 z m 0.640566,-0.370621 c 0.112733,-0.06033 0.163768,-0.177567 0.163768,-0.376199 0,-0.346889 -0.243068,-0.552155 -0.653839,-0.552155 h -0.277495 v 0.451555 c 0,0.248356 0.0254,0.476956 0.05644,0.508 0.08645,0.08644 0.527454,0.0671 0.711121,-0.0312 z m -0.05682,-1.292363 c 0.372054,-0.272053 -0.05089,-0.889464 -0.524478,-0.765619 -0.159836,0.0418 -0.18627,0.107384 -0.18627,0.462169 0,0.411531 0.0013,0.413459 0.280151,0.413459 0.154084,0 0.347852,-0.0495 0.430597,-0.110009 z m 1.607282,1.597016 c -0.389754,-0.169631 -0.54003,-0.437778 -0.54003,-0.963616 0,-0.728773 0.327505,-1.116058 0.943784,-1.116058 0.181072,0 0.344694,0.08621 0.54635,0.287867 0.252844,0.252844 0.287866,0.340912 0.287866,0.723871 0,0.555024 -0.186864,0.916185 -0.553237,1.069265 -0.345155,0.144215 -0.350344,0.144205 -0.684733,-0.0013 z m 0.595382,-0.327989 c 0.195017,-0.1426 0.27627,-0.816968 0.138509,-1.149554 -0.196629,-0.474702 -0.71752,-0.395892 -0.814921,0.123295 -0.147956,0.788673 0.225807,1.355749 0.676412,1.026259 z m 3.77185,0.298932 c -0.36252,-0.181672 -0.501745,-0.452523 -0.503347,-0.979221 -0.0014,-0.467085 0.18398,-0.843548 0.482397,-0.979515 0.38035,-0.173299 0.9694,-0.06555 0.83454,0.152653 -0.032,0.05177 -0.18712,0.09413 -0.34471,0.09413 -0.36264,0 -0.55014,0.247811 -0.55014,0.727087 0,0.484321 0.2728,0.831252 0.60188,0.765435 0.24011,-0.04802 0.41091,0.07427 0.27551,0.197257 -0.1674,0.152051 -0.51751,0.1618 -0.79613,0.02217 z m 1.4004,0.07539 c -0.3153,-0.06621 -0.35153,-0.313423 -0.0423,-0.288858 0.32881,0.02612 0.5693,-0.04545 0.62301,-0.185418 0.0814,-0.212202 -0.0229,-0.352669 -0.38242,-0.514781 -0.3919,-0.17672 -0.53567,-0.446139 -0.39861,-0.746949 0.19273,-0.422998 1.17402,-0.556236 1.17402,-0.159406 0,0.09366 -0.062,0.115963 -0.23193,0.08348 -0.5699,-0.108943 -0.72419,0.345455 -0.2069,0.609354 0.42082,0.214687 0.54185,0.369552 0.50845,0.650583 -0.0459,0.385953 -0.55392,0.654761 -1.04328,0.552 z m 3.8773,-0.01578 c -0.28933,-0.08646 -0.53296,-0.360895 -0.53296,-0.60034 0,-0.283039 0.36535,-0.589579 0.79931,-0.670653 0.49002,-0.09155 0.50172,-0.10009 0.43305,-0.316433 -0.0669,-0.210829 -0.36215,-0.288012 -0.71481,-0.18687 -0.21447,0.06151 -0.28271,0.05132 -0.32078,-0.04788 -0.0662,-0.172489 -0.0297,-0.194703 0.42151,-0.256547 0.47846,-0.06558 0.84753,0.06978 0.9794,0.359209 0.0526,0.115461 0.0956,0.529418 0.0956,0.919906 0,0.777285 0.0174,0.752735 -0.59267,0.838869 -0.16298,0.02301 -0.41845,0.0054 -0.5677,-0.03926 z m 0.73704,-0.67089 c 0,-0.362141 -0.0237,-0.423333 -0.16382,-0.423333 -0.31504,0 -0.59335,0.162919 -0.64761,0.379105 -0.0762,0.303603 0.0932,0.467562 0.48313,0.467562 h 0.3283 z m -8.418287,0.544286 c -0.101085,-0.101084 -0.133048,-0.31466 -0.133048,-0.889 0,-0.70842 -0.01104,-0.755952 -0.175541,-0.755952 -0.121609,0 -0.166775,-0.04552 -0.147008,-0.148167 0.01569,-0.08149 0.08516,-0.148167 0.154375,-0.148167 0.06987,0 0.139053,-0.09415 0.155543,-0.211667 0.06043,-0.430645 0.435964,-0.467111 0.435964,-0.04233 0,0.239889 0.03225,0.296334 0.169333,0.296334 0.09407,0 0.169334,0.05644 0.169334,0.127 0,0.07055 -0.07526,0.127 -0.169334,0.127 -0.156197,0 -0.169333,0.05644 -0.169333,0.727593 0,0.656388 0.01657,0.731926 0.169333,0.771874 0.09313,0.02436 0.169334,0.09699 0.169334,0.161407 0,0.162842 -0.461881,0.15115 -0.628952,-0.01592 z m 1.052285,-0.882952 v -1.016 h 0.211667 0.211666 v 1.016 1.016 H 81.36318 81.151513 Z m 4.233332,-0.455792 c 0,-1.38596 0.01,-1.4743 0.16443,-1.514792 0.0904,-0.02365 0.18569,-0.02174 0.21167,0.0042 0.026,0.02598 0.0487,0.431411 0.0505,0.900959 l 0.003,0.853721 0.35658,-0.402855 c 0.27483,-0.310498 0.41408,-0.402698 0.6074,-0.402167 l 0.25081,6.77e-4 -0.41391,0.420231 -0.41391,0.42023 0.38111,0.489936 c 0.54323,0.698369 0.54443,0.701603 0.25868,0.701603 -0.20652,0 -0.30737,-0.08624 -0.61883,-0.529166 l -0.3721,-0.529152 -0.0252,0.529167 c -0.0237,0.498401 -0.0373,0.529167 -0.23284,0.529167 h -0.20762 z m -2.90958,-0.989687 c -0.1227,-0.09651 -0.22309,-0.210813 -0.22309,-0.254 0,-0.12317 0.22218,-0.09189 0.33793,0.04758 0.0923,0.111247 0.13313,0.109278 0.34642,-0.01672 0.33755,-0.19939 0.42808,-0.05291 0.11999,0.194116 -0.30829,0.247187 -0.30416,0.246981 -0.58125,0.02902 z m 5.53425,0.135148 c 0,-0.02901 0.0581,-0.165153 0.12917,-0.302541 0.0928,-0.179537 0.19115,-0.249795 0.34952,-0.249795 h 0.22034 l -0.21194,0.275166 c -0.18934,0.245824 -0.48709,0.415254 -0.48709,0.27717 z m -6.905357,-0.221794 c -0.08142,-0.131741 0.177244,-0.363795 0.337123,-0.302444 0.07346,0.02819 0.133565,0.128649 0.133565,0.223245 0,0.125903 -0.05538,0.17199 -0.206669,0.17199 -0.113669,0 -0.232477,-0.04176 -0.264019,-0.09279 z m -3.085311,-0.102489 c 0,-0.02046 0.07772,-0.2129 0.172718,-0.427652 l 0.172718,-0.390458 -0.342051,-0.96671 c -0.188129,-0.531691 -0.342052,-0.989478 -0.342052,-1.017305 0,-0.09961 0.42936,-0.04841 0.463222,0.05524 0.01902,0.05821 0.124637,0.410634 0.234714,0.783167 l 0.200139,0.677333 0.241642,-0.783166 c 0.214779,-0.696107 0.263687,-0.783167 0.439961,-0.783167 0.109077,0 0.195598,0.02857 0.19227,0.0635 -0.0033,0.03493 -0.222431,0.6731 -0.486894,1.418167 -0.453116,1.276556 -0.494263,1.356212 -0.713614,1.381457 -0.128025,0.01473 -0.232773,0.01005 -0.232773,-0.0104 z m -1.820334,-0.826147 c -0.468786,-0.149907 -0.745633,-0.487444 -0.839448,-1.023468 -0.129579,-0.740369 0.262459,-1.421294 0.911134,-1.582532 0.420659,-0.104562 0.944314,-0.01608 0.944314,0.159565 0,0.09273 -0.112775,0.123763 -0.452284,0.124468 -0.402962,8.46e-4 -0.479134,0.03099 -0.6985,0.276502 -0.205524,0.230022 -0.246163,0.348804 -0.245899,0.718728 5.08e-4,0.715519 0.380545,1.16311 0.903154,1.063702 0.122414,-0.02328 0.160225,-0.122428 0.180454,-0.473165 0.02457,-0.42595 0.01694,-0.443706 -0.1905,-0.443706 -0.159647,0 -0.216091,-0.04423 -0.216091,-0.169334 0,-0.146755 0.05644,-0.169333 0.423333,-0.169333 h 0.423333 v 0.71467 c 0,0.393068 -0.02858,0.732259 -0.0635,0.753756 -0.150072,0.09237 -0.846307,0.124716 -1.0795,0.05015 z m 9.482662,0.03164 c -0.29404,-0.07588 -0.46566,-0.29321 -0.46566,-0.589672 0,-0.374122 0.21583,-0.57552 0.75552,-0.704991 0.37444,-0.08983 0.43528,-0.131973 0.41328,-0.286277 -0.023,-0.161044 -0.0791,-0.180717 -0.51091,-0.178891 -0.32379,0.0014 -0.49929,-0.03489 -0.52774,-0.109039 -0.0594,-0.1547 0.17281,-0.231156 0.70283,-0.231439 0.66594,-3.38e-4 0.77568,0.167938 0.77568,1.189476 0,0.434477 -0.0286,0.806899 -0.0635,0.827607 -0.1132,0.06712 -0.90528,0.128185 -1.0795,0.08323 z m 0.58575,-0.246941 c 0.0975,-0.03742 0.13392,-0.166939 0.13392,-0.47625 v -0.424859 l -0.2671,0.05342 c -0.36507,0.07301 -0.4949,0.199434 -0.4949,0.481907 0,0.324653 0.29204,0.494732 0.62808,0.365782 z m 4.13611,0.248943 c -0.39639,-0.08304 -0.53086,-0.404051 -0.53086,-1.267303 0,-0.789332 9.6e-4,-0.792915 0.21167,-0.792915 0.20997,0 0.21167,0.006 0.21167,0.755952 0,0.84655 0.0883,1.022048 0.51404,1.022048 h 0.24796 v -0.889 -0.889 h 0.254 0.254 v 0.964608 c 0,0.739381 -0.0271,0.975018 -0.11618,1.00919 -0.19446,0.07462 -0.84581,0.12842 -1.0463,0.08642 z M 79.796849,65.720673 c 0,-0.538691 0.03669,-0.991345 0.08265,-1.019751 0.208712,-0.128991 0.914146,-0.143717 1.142905,-0.02386 0.209256,0.10964 0.267829,0.109669 0.487192,2.54e-4 0.321801,-0.160536 0.821589,-0.08384 1.017749,0.156179 0.11891,0.145481 0.14817,0.346665 0.14817,1.018575 0,0.836661 -1.7e-4,0.837287 -0.21167,0.837287 -0.21088,0 -0.21166,-0.003 -0.21166,-0.802382 0,-0.756547 -0.0118,-0.81009 -0.205991,-0.93735 -0.160236,-0.104991 -0.244862,-0.114166 -0.381,-0.04131 -0.158929,0.08504 -0.175011,0.171176 -0.175011,0.937334 v 0.843688 h -0.254 -0.254 v -0.848762 c 0,-0.81729 -0.0075,-0.851618 -0.20258,-0.925783 -0.111419,-0.04236 -0.282869,-0.05602 -0.381,-0.03036 -0.166998,0.04367 -0.17842,0.102939 -0.17842,0.925783 V 66.68934 H 80.008516 79.79685 Z m 3.301996,-0.0077 c 0,-1.12606 -0.0209,-1.09801 0.81661,-1.09801 0.79918,0 0.87673,0.106001 0.87673,1.198456 v 0.875877 h -0.21167 c -0.21144,0 -0.21167,-9.06e-4 -0.21167,-0.833076 0,-0.816215 -0.005,-0.835118 -0.22139,-0.933951 -0.12177,-0.05548 -0.29322,-0.07808 -0.381,-0.05022 -0.14293,0.04536 -0.15961,0.142963 -0.15961,0.933951 v 0.883294 h -0.254 -0.254 z m 4.28172,0.505096 c 0.11462,-0.259176 0.30367,-0.659226 0.4201,-0.889 l 0.2117,-0.417773 h -0.38242 c -0.28349,0 -0.38243,-0.03286 -0.38243,-0.127 0,-0.1016 0.127,-0.127 0.635,-0.127 0.37518,0 0.635,0.03533 0.635,0.08636 0,0.0475 -0.17145,0.427736 -0.381,0.844975 -0.20955,0.41724 -0.381,0.778428 -0.381,0.802642 0,0.02421 0.1905,0.04402 0.42333,0.04402 0.31985,0 0.42334,0.03104 0.42334,0.127 0,0.102863 -0.13589,0.127 -0.71501,0.127 h -0.71501 z m 1.60262,-0.544594 v -1.015954 l 0.23283,-8.5e-5 0.23283,-8.5e-5 v 1.016 1.016 l -0.23283,6.7e-5 -0.23283,6.6e-5 V 65.67353 Z m 3.00566,0.04715 c 0,-0.538691 0.0367,-0.991345 0.0827,-1.019751 0.20456,-0.126424 0.92472,-0.144985 1.15713,-0.02982 0.19903,0.09862 0.27939,0.100745 0.45356,0.01197 0.31393,-0.160024 0.71013,-0.133225 0.96224,0.06509 0.21552,0.169528 0.22309,0.205416 0.22309,1.058333 v 0.882855 h -0.21167 -0.21166 V 65.84054 c 0,-0.833218 -0.004,-0.850274 -0.21721,-0.931345 -0.14427,-0.05485 -0.27222,-0.05315 -0.381,0.0051 -0.14512,0.07767 -0.16379,0.183831 -0.16379,0.931348 v 0.843688 h -0.25924 -0.25924 l 0.011,-0.6985 c 0.006,-0.384175 0.008,-0.766118 0.005,-0.848762 -0.007,-0.178527 -0.33813,-0.323344 -0.58936,-0.257646 -0.16699,0.04367 -0.17841,0.102939 -0.17841,0.925783 v 0.879125 h -0.21167 -0.21167 z m -5.95134,-1.592498 c 0.0886,-0.152086 0.24354,-0.287268 0.34646,-0.302221 0.25087,-0.03645 0.23436,0.07625 -0.0512,0.349881 -0.33955,0.325314 -0.49756,0.299806 -0.2952,-0.04766 z m 2.98448,0.05925 c -0.0895,-0.107838 -0.0865,-0.1537 0.0169,-0.257111 0.1366,-0.136597 0.40993,-0.08049 0.40993,0.08415 0,0.109062 -0.16715,0.304208 -0.26057,0.304208 -0.0316,0 -0.10638,-0.05906 -0.16629,-0.131249 z"
       id="path205" /><ellipse
       style="fill:#ffffff;stroke-width:0.264583"
       id="path317"
       cx="36.126091"
       cy="84.370239"
       rx="0.10500535"
       ry="0.015000765" /></g></svg>
